<svg id="visual" viewBox="0 0 1920 1080" width="1920" height="1080" xmlns="http://www.w3.org/2000/svg" xmlns:xlink="http://www.w3.org/1999/xlink" version="1.1"><rect x="0" y="0" width="1920" height="1080" fill="#931C1C"></rect><path d="M0 526L274 675L549 584L823 457L1097 575L1371 617L1646 450L1920 589L1920 1081L1646 1081L1371 1081L1097 1081L823 1081L549 1081L274 1081L0 1081Z" fill="#f5730a"></path><path d="M0 604L274 605L549 653L823 626L1097 768L1371 640L1646 773L1920 726L1920 1081L1646 1081L1371 1081L1097 1081L823 1081L549 1081L274 1081L0 1081Z" fill="#da5b09"></path><path d="M0 722L274 781L549 717L823 707L1097 799L1371 742L1646 815L1920 821L1920 1081L1646 1081L1371 1081L1097 1081L823 1081L549 1081L274 1081L0 1081Z" fill="#be4407"></path><path d="M0 906L274 901L549 882L823 844L1097 799L1371 810L1646 864L1920 904L1920 1081L1646 1081L1371 1081L1097 1081L823 1081L549 1081L274 1081L0 1081Z" fill="#a32d04"></path><path d="M0 1013L274 1015L549 985L823 940L1097 973L1371 1009L1646 919L1920 982L1920 1081L1646 1081L1371 1081L1097 1081L823 1081L549 1081L274 1081L0 1081Z" fill="#871400"></path></svg>